<svg xmlns="http://www.w3.org/2000/svg" viewBox="0 0 512 512" width="512" height="512">
	<style>
		tspan { white-space:pre }
		.shp0 { fill: #ffffff } 
	</style>
	<path id="Layer" class="shp0" d="M243.2,276.56v-66.56l-57.64,-33.28l-57.64,33.28v66.56l57.64,33.28z" />
	<path id="Layer" class="shp0" d="M470.2,266.46l37.56,21.69l-37.56,21.69l-57.64,-33.28v-66.56l57.64,-33.28l34.93,20.18c3.5,14.76 5.7,30.02 6.51,45.64l-21.36,12.33v-23.19l-20.08,-11.59l-20.08,11.59v23.19z" />
	<path id="Layer" class="shp0" d="M481.39,249.74v-12.92l-11.19,-6.46l-11.19,6.46v12.92l11.19,6.46z" />
	<path id="Layer" class="shp0" d="M100.69,210v87.77l-38.44,-21.93v-44.99l-19.19,-11.09l-19.19,11.09v44.99l-21.83,12.46c-1.34,-10.57 -2.03,-21.36 -2.03,-32.3c0,-20.04 2.3,-39.55 6.66,-58.26l36.39,-21.01z" />
	<path id="Layer" class="shp0" d="M127.91,210l57.64,99.83l57.64,-33.28l-57.64,-99.83z" />
	<path id="Layer" class="shp0" d="M127.91,276.56l19.79,-32.28l-19.79,-34.28z" />
	<path id="Layer" class="shp0" d="M223.98,243.28l19.22,-33.28l-57.64,-33.28z" />
	<path id="Layer" class="shp0" d="M384.87,120.09v156.47l-57.64,33.28l-57.65,-33.28v-66.56l57.65,-33.28l19.32,11.16v-88.3zM346.45,232.19l-19.22,-11.1l-19.22,11.1v22.18l19.22,11.1l19.22,-11.1z" />
	<g id="Layer">
		<path id="Layer" class="shp0" d="M282.15,358.72c0,0 -1.13,-9.73 -11.54,-9.73c-10.41,0 -17.53,1.36 -17.53,7.13c0,5.77 20.25,5.77 27.94,8.03c7.69,2.26 14.48,8.14 11.09,18.55c-3.39,10.41 -13.8,11.54 -29.87,11.54c-16.06,0 -19.69,-13.35 -19.69,-18.55h9.05c0,0 -1.13,8.14 9.5,9.5c10.63,1.36 20.8,2.12 22.17,-6.11c1.81,-10.86 -34.39,-5.43 -37.56,-16.06c-2.68,-8.99 -1.13,-20.81 16.97,-22.63c18.1,-1.81 28.06,6.18 28.06,18.1z" />
		<path id="Layer" class="shp0" d="M194.72,401.13l20.01,11.55c10.05,5.8 22.62,-1.45 22.62,-13.06v-20.24v-37.25h-8.16v55.23c0,6.34 -6.86,10.3 -12.35,7.13l-13.97,-8.06v-58.94l51.04,-29.47l51.04,29.47v58.94l-51.04,29.47l-14.7,-8.49l-9.6,3.87l24.31,14.03l59.2,-34.18v-68.35l-59.2,-34.18l-59.2,34.18v68.35z" />
	</g>
	<g id="Layer">
	</g>
	<g id="Layer">
	</g>
	<g id="Layer">
	</g>
	<g id="Layer">
	</g>
	<g id="Layer">
	</g>
	<g id="Layer">
	</g>
	<g id="Layer">
	</g>
	<g id="Layer">
	</g>
	<g id="Layer">
	</g>
	<g id="Layer">
	</g>
	<g id="Layer">
	</g>
	<g id="Layer">
	</g>
	<g id="Layer">
	</g>
	<g id="Layer">
	</g>
	<g id="Layer">
	</g>
</svg>