<?xml version="1.0" encoding="iso-8859-1"?>
<!-- Generator: Adobe Illustrator 19.0.0, SVG Export Plug-In . SVG Version: 6.00 Build 0)  -->
<svg xmlns="http://www.w3.org/2000/svg" xmlns:xlink="http://www.w3.org/1999/xlink" version="1.1" id="Capa_1" x="0px" y="0px" viewBox="0 0 512.002 512.002" style="enable-background:new 0 0 512.002 512.002;" xml:space="preserve" width="512px" height="512px">
<g>
	<g>
		<path d="M469.99,27.001H379H133H42.01C18.846,27.001,0,45.846,0,69.011V334.99c0,23.165,18.846,42.011,42.01,42.011h208.977    c4.242,24.203,15.197,46.836,31.892,65.322c21.684,24.01,51.265,39.146,83.294,42.62c2.618,0.285,5.233-0.473,7.291-2.106    c0.885-0.702,19.269-15.613,23.697-44.862c5.773,9.236,9.979,22.823,11.207,37.841c0.254,3.104,1.939,5.913,4.56,7.597    c1.633,1.05,3.514,1.588,5.408,1.588c1.145,0,2.294-0.196,3.397-0.595c46.002-16.618,81.888-63.103,88.985-112.512    c0.814-1.447,1.284-3.114,1.284-4.893V69.011C512,45.846,493.154,27.001,469.99,27.001z M143,47.001h226v90H256.261    c-0.088-0.002-0.173-0.013-0.261-0.013s-0.173,0.011-0.261,0.013H143V47.001z M20,69.011c0-12.137,9.874-22.01,22.01-22.01H123v90    H20V69.011z M123,357.001H42.01c-12.136,0-22.01-9.874-22.01-22.011v-67.989h103V357.001z M257.775,306.943    c-1.073,2.782-2.062,5.638-2.944,8.499c-0.115,0.318-0.213,0.639-0.294,0.961c-3.674,12.249-5.537,24.971-5.537,37.822    c0,0.927,0.013,1.853,0.032,2.778H143v-0.002v-90h38c5.523,0,10-4.477,10-10c0-5.523-4.477-10-10-10H20v-90h113h113v22.017    c0,5.523,4.477,10,10,10s10-4.477,10-10v-22.017h93.059c-9.264,6.143-17.645,13.367-24.93,21.583    c-13.666,15.411-22.999,33.755-27.501,53.83c-8.719-6.737-18.355-12.189-28.811-16.287c-6.473-2.537-13.201-4.508-19.998-5.856    c-3.904-0.773-7.891,0.837-10.16,4.104c-2.269,3.267-2.387,7.567-0.299,10.953C262.551,249.969,266.245,278.939,257.775,306.943z     M426.429,460.602c-4.375-22.579-15.414-46.389-35.541-53.205c-3.228-1.094-6.791-0.467-9.453,1.662    c-2.662,2.129-4.057,5.466-3.7,8.855c0.251,2.388,0.378,4.808,0.378,7.194c0,21.097-9.473,34.099-14.315,39.366    C309.44,456.351,269,409.735,269,354.223c0-11.041,1.619-21.966,4.813-32.47c0.002-0.007,0.004-0.014,0.006-0.021    c0.017-0.051,0.033-0.102,0.048-0.153c0.798-2.611,1.702-5.217,2.687-7.748c0.09-0.23,0.17-0.463,0.243-0.699    c7.878-25.74,7.163-52.196-1.783-76.497c10.649,4.788,20.183,11.36,28.45,19.583c-1.65,24.267,3.424,48.346,14.874,70.067    c1.791,3.399,5.263,5.339,8.854,5.339c1.572,0,3.167-0.372,4.654-1.156c4.886-2.575,6.759-8.623,4.184-13.509    c-10.69-20.282-14.851-42.98-12.034-65.64c0.058-0.469,0.071-0.932,0.065-1.391c3.927-40.589,29.818-73.229,69.224-88.138    c0.052,68.75,50.755,101.926,58.103,106.371C477.207,289.451,492,320.776,492,354.223C492,397.592,464.52,441.177,426.429,460.602    z M461.971,251.186c-1.351-0.81-13.075-8.055-24.575-22.01c-1.629-1.976-3.154-3.996-4.619-6.04    c8.99-11.285,19.944-20.582,32.656-27.686c-3.229,12.223-4.821,25.237-4.665,38.535    C460.836,239.786,461.244,245.532,461.971,251.186z M492,283.851c-14.861-31.194-15.049-71.818-0.178-102.468    c0.071-0.147,0.115-0.301,0.178-0.449V283.851z M492,173.063c-0.401-0.93-0.939-1.812-1.626-2.603    c-2.625-3.024-6.802-4.189-10.613-2.961c-7.264,2.338-14.383,5.334-21.16,8.906c-13.905,7.329-26.104,16.827-36.418,28.305    c-5.903-13.274-8.9-27.658-8.9-43.027c0-1.871,0.005-3.351,0.036-4.681H492V173.063z M492,137.001H389v-90h80.99    c12.136,0,22.01,9.873,22.01,22.01V137.001z" fill="#FFFFFF"/>
	</g>
</g>
<g>
	<g>
		<path d="M221.375,247.001H221c-5.523,0-10,4.477-10,10c0,5.523,4.477,10,10,10h0.375c5.523,0,10-4.477,10-10    C231.375,251.478,226.898,247.001,221.375,247.001z" fill="#FFFFFF"/>
	</g>
</g>
<g>
	<g>
		<path d="M451.364,404.222c-3.85-3.959-10.182-4.05-14.142-0.201l-0.28,0.271c-3.979,3.83-4.099,10.161-0.268,14.139    c1.963,2.039,4.582,3.064,7.205,3.064c2.496,0,4.995-0.929,6.935-2.796l0.349-0.336    C455.123,414.514,455.213,408.183,451.364,404.222z" fill="#FFFFFF"/>
	</g>
</g>
<g>
	<g>
		<path d="M448.503,299.386c-4.283-3.486-10.582-2.839-14.068,1.443c-3.486,4.284-2.84,10.583,1.444,14.068    c13.438,10.937,21.145,27.129,21.145,44.427c0,4.326-0.54,8.75-1.605,13.147c-1.3,5.368,1.997,10.773,7.364,12.073    c0.791,0.192,1.583,0.284,2.363,0.284c4.509,0,8.602-3.072,9.71-7.648c1.438-5.938,2.168-11.946,2.168-17.856    C477.023,335.984,466.628,314.137,448.503,299.386z" fill="#FFFFFF"/>
	</g>
</g>
<g>
</g>
<g>
</g>
<g>
</g>
<g>
</g>
<g>
</g>
<g>
</g>
<g>
</g>
<g>
</g>
<g>
</g>
<g>
</g>
<g>
</g>
<g>
</g>
<g>
</g>
<g>
</g>
<g>
</g>
</svg>
