<svg xmlns="http://www.w3.org/2000/svg" viewBox="0 0 504 504" width="504" height="504">
	<style>
		tspan { white-space:pre }
		.shp0 { fill: #ffffff } 
	</style>
	<g id="Layer">
		<path id="Layer" class="shp0" d="M137,282.4h-23.2l-3.2,12h-20.8l24.8,-72.8h22.2l16.59,48.69l-0.19,0.01c0.53,6.53 2.54,11.96 5.75,16.31l2.65,7.79h-21.3zM132.7,266.7l-7.3,-26.2l-7.2,26.2zM158.95,286.61l-5.56,-16.33l19.21,-1.39c0.5,3.5 1.3,6.1 2.6,7.9c2.1,2.9 5.1,4.4 9,4.4c2.9,0 5.1,-0.7 6.7,-2.3c1.5,-1.5 2.4,-3.3 2.4,-5.2c0,-1.9 -0.7,-3.6 -2.3,-5.1c-1.5,-1.5 -5,-2.9 -10.4,-4.2c-8.9,-2.2 -15.3,-5.2 -19.1,-8.8c-3.8,-3.6 -5.7,-8.4 -5.7,-14c0,-3.7 1,-7.3 2.9,-10.6c2,-3.3 4.9,-5.9 8.8,-7.8c3.9,-1.9 9.3,-2.8 16.2,-2.8c8.4,0 14.9,1.7 19.2,5.2c4.4,3.5 7,8.9 7.8,16.5l-19.2,1.3c-0.5,-3.3 -1.5,-5.7 -3.2,-7.2c-1.6,-1.5 -3.9,-2.2 -6.7,-2.2c-2.4,0 -4.2,0.5 -5.4,1.6c-1.2,1.1 -1.8,2.5 -1.8,4c0,1.2 0.5,2.2 1.5,3.1c1,1 3.3,1.8 6.8,2.6c8.9,2.1 15.2,4.3 19.1,6.5c3.8,2.2 6.7,4.8 8.4,8.1c0.77,1.44 1.37,2.96 1.8,4.56v12.54c-0.6,2.28 -1.53,4.48 -2.8,6.59c-2.4,3.9 -5.6,6.9 -9.8,8.9c-4.2,2 -9.5,3 -15.9,3c-11.2,0 -19,-2.4 -23.2,-7.2c-0.47,-0.54 -0.92,-1.11 -1.35,-1.69zM212,264.46v-42.86h33.8c7.4,0 12.9,1.9 16.6,5.8c3.6,3.8 5.5,9.4 5.5,16.5c0,7.4 -2,13.1 -6,17.2c-4,4.1 -10.1,6.2 -18.3,6.2h-11.1v27.1h-20.5v-17.39c0.53,-2.04 0.8,-4.14 0.8,-6.31c0,-2.2 -0.27,-4.28 -0.8,-6.24zM237.4,252.6c3.9,0 6.7,-0.7 8.3,-2.3c1.5,-1.5 2.4,-3.5 2.4,-5.7c0,-2.2 -0.7,-4.3 -2.1,-5.8c-1.4,-1.5 -3.9,-2.4 -7.7,-2.4h-5.8v16.2z" />
		<path id="Layer" class="shp0" d="M276,293.6v-62.1h8.3v8.8c4,-6.8 9.8,-10.2 17.3,-10.2c3.3,0 6.3,0.6 9,2c2.7,1.4 4.8,3.1 6.2,5.3c1.4,2.2 2.3,4.7 2.9,7.7c0.4,1.9 0.5,5.4 0.5,10.2v38.1h-9.2v-37.7c0,-4.3 -0.4,-7.5 -1.1,-9.6c-0.7,-2.1 -2,-3.8 -3.8,-5.1c-1.8,-1.3 -4,-1.9 -6.5,-1.9c-3.9,0 -7.3,1.5 -10.2,4.3c-2.8,2.8 -4.3,8.2 -4.3,16.2v33.9zM371.5,273.6l9.5,1.4c-1.5,6.4 -4.3,11.3 -8.3,14.8c-4.1,3.5 -9.3,5.3 -15.6,5.3c-7.9,0 -14.2,-2.8 -18.9,-8.4c-4.6,-5.6 -7,-13.4 -7,-23.5c0,-10.5 2.4,-18.5 7,-24.3c4.7,-5.7 10.8,-8.7 18.3,-8.7c3.08,0 5.91,0.5 8.5,1.5v8.1h10.14c4.04,5.6 6.06,13.14 6.06,22.7c0,0.6 0,1.5 -0.1,2.8h-40.6c0.4,6.8 2,12 5.1,15.7c3,3.6 6.8,5.5 11.4,5.5c3.4,0 6.3,-1 8.7,-3c2.5,-2.2 4.4,-5.5 5.8,-9.9zM374.3,238.7c0.29,0.36 0.57,0.72 0.84,1.1h19.36v35.7c0,6.3 0.4,10.5 1.1,12.4c0.8,1.9 2.1,3.5 3.9,4.7c1.8,1.2 4.3,1.8 7.7,1.8c2,0 4.3,-0.3 6.9,-0.9l-1.4,-9.3c-1.6,0.3 -3,0.4 -4,0.3c-1.3,0 -2.4,-0.2 -3.1,-0.7c-0.7,-0.6 -1.1,-1.3 -1.5,-2.1c-0.3,-0.8 -0.5,-2.7 -0.5,-5.7v-36.2h9.3v-8.2h-9.3v-21.7l-9.2,6.3v15.4h-29.4v0.1c3.55,1.38 6.64,3.7 9.3,7zM341.2,256.6h30.4c-0.4,-5.2 -1.5,-9.1 -3.5,-11.8c-2.9,-4 -6.7,-6.1 -11.4,-6.1c-4.2,0 -7.7,1.6 -10.7,4.8c-2.9,3.3 -4.4,7.7 -4.8,13.1z" />
		<path id="Layer" class="shp0" d="M262.3,277.5c4,0 7.4,3.4 7.4,7.5c0,4.1 -3.3,7.5 -7.4,7.5c-4,0 -7.4,-3.4 -7.4,-7.5c0,-4.1 3.3,-7.5 7.4,-7.5z" />
	</g>
</svg>