<svg xmlns="http://www.w3.org/2000/svg" viewBox="0 0 24 24" width="24" height="24">
	<style>
		tspan { white-space:pre }
		.shp0 { fill: #ffffff } 
	</style>
	<path id="Layer" class="shp0" d="M6.46,13.27l13.7,-3.28c-0.76,-1.08 -4.2,-5.96 -4.54,-6.43c-0.37,-0.52 0.01,-0.77 0.62,-0.87c0.61,-0.1 5.85,-0.98 6.3,-1.05c0.38,-0.05 0.69,-0.18 1.21,0.31c-0.48,-1.14 -1.61,-1.94 -2.93,-1.94h-17.62c-1.55,0 -2.84,1.11 -3.12,2.58z" />
	<path id="Layer" class="shp0" d="M23.37,3.12c0.06,0.08 0.3,0.39 0.63,0.81v5.13l-2.37,0.58l-4.01,-5.5c-0.11,-0.16 -0.21,-0.32 0.07,-0.35c0.28,-0.04 4.84,-0.86 5.04,-0.91c0.21,-0.05 0.38,-0.1 0.64,0.24zM24,15.13v3.8c-3.6,1.22 -11.21,3.79 -11.39,3.87c-0.24,0.1 -0.44,0.14 -0.75,-0.31c-0.31,-0.45 -4.41,-7.55 -4.41,-7.55l13.36,-3.48c0.39,-0.13 0.48,-0.08 0.65,0.16c0.12,0.17 1.39,1.91 2.56,3.51zM22.75,11.11l1.25,-0.33v2.01zM15.8,23.99c2.31,-0.82 5.63,-2.01 8.19,-2.94c-0.12,1.64 -1.5,2.94 -3.17,2.94h-5.02M5.56,15.43c1.33,2.41 3.89,7.03 4.83,8.56h-7.19c-1.75,0 -3.18,-1.42 -3.19,-3.18v-3.94l5.55,-1.45M4.44,13.36c0.17,0.3 0.26,0.35 -0.09,0.43l-4.33,1.03v-9.1l4.42,7.63" />
	<path id="Layer" class="shp0" d="M22.65,10.96l1.36,-0.37v0.63l-0.93,0.31z" />
</svg>