<svg xmlns="http://www.w3.org/2000/svg" viewBox="0 0 50 50" width="50" height="50">
	<style>
		tspan { white-space:pre }
		.shp0 { fill: #ffffff } 
	</style>
	<g id="surface1">
		<path id="Layer" class="shp0" d="M39.03,3.88c0,0.04 -0.05,0.11 -0.09,0.13c-0.57,0.13 -1.16,0.24 -1.78,0.38c0,-0.63 -0.01,-1.23 0,-1.81c0,-0.06 0.09,-0.14 0.16,-0.16c0.56,-0.14 1.15,-0.27 1.75,-0.41c0,0.63 -0.02,1.25 -0.03,1.88zM36.69,4.47c-0.61,0.11 -1.22,0.22 -1.87,0.34v-1.22c0,-0.66 0.01,-0.68 0.66,-0.81c0.41,-0.09 0.8,-0.16 1.22,-0.25zM34.34,4.78c0,0.05 -0.09,0.11 -0.16,0.13c-0.55,0.1 -1.12,0.18 -1.72,0.28c0,-0.6 -0.01,-1.15 0,-1.72c0,-0.05 0.05,-0.15 0.09,-0.16c0.59,-0.11 1.16,-0.2 1.78,-0.31c0,0.61 0.01,1.2 0,1.78zM29.63,5.59c-0.62,0.07 -1.24,0.18 -1.87,0.25v-1.81c0.61,-0.08 1.24,-0.16 1.88,-0.25zM41.38,5.69c-0.61,0.13 -1.21,0.24 -1.84,0.38c0,-0.57 -0.01,-1.11 0,-1.66c0,-0.04 0.08,-0.11 0.13,-0.12c0.57,-0.13 1.14,-0.24 1.72,-0.37c0,0.62 0,1.19 0,1.78zM27.28,5.78c0,0.04 -0.08,0.12 -0.12,0.13c-0.59,0.06 -1.18,0.1 -1.78,0.16v-1.78c0.62,-0.07 1.24,-0.12 1.91,-0.19c0,0.58 0.01,1.13 0,1.69zM24.88,6.13c-0.63,0.05 -1.24,0.08 -1.87,0.13v-1.75c0.62,-0.05 1.23,-0.1 1.88,-0.16zM22.5,6.28c-0.62,0.04 -1.26,0.09 -1.91,0.13v-1.78c0.64,-0.04 1.27,-0.06 1.91,-0.09zM15.31,4.75v1.72h-1.87v-1.72zM17.72,4.78v1.69h-1.87v-1.69zM36.69,6.59c-0.62,0.11 -1.22,0.2 -1.87,0.31c0,-0.54 -0.01,-1.05 0,-1.56c0,-0.05 0.1,-0.11 0.16,-0.12c0.57,-0.11 1.14,-0.21 1.72,-0.31zM34.34,7.44c-0.61,0.09 -1.2,0.16 -1.81,0.25v1.63c0.61,-0.07 1.19,-0.17 1.81,-0.25c0.01,0.14 0.02,0.28 0.03,0.44c0.47,-0.03 0.94,-0.07 1.41,-0.09c1.59,-0.09 3.11,0.16 4.5,1c0.66,0.4 1.17,0.95 1.53,1.63c0.46,0.87 0.68,1.78 0.75,2.75c0.09,1.26 0.05,2.54 -0.37,3.75c-0.48,1.34 -1.29,2.44 -2.41,3.31c-1,0.78 -2.16,1.21 -3.34,1.63c-0.68,0.24 -0.69,0.23 -0.69,0.94v0.63c0.45,0.08 0.91,0.14 1.34,0.25c0.75,0.2 1.48,0.44 2.22,0.66c0.17,0.05 0.22,0.15 0.22,0.34c-0.02,0.61 0,1.2 0,1.84c0.45,0.02 0.88,0.04 1.31,0.06c0.34,0.02 0.67,0.09 1,0.06c0.4,-0.04 0.6,0.15 0.78,0.47c0.59,1.02 0.91,2.12 1.03,3.28c0.14,1.41 0.09,2.81 -0.28,4.19c-0.6,2.23 -2.12,3.54 -4.31,4.13c-1.19,0.32 -2.38,0.34 -3.59,0.25c-0.35,-0.02 -0.7,-0.04 -1.09,-0.06v4.16c-2.21,-0.31 -4.41,-0.63 -6.62,-0.94v-3.94c-0.96,-0.07 -1.91,-0.14 -2.87,-0.22v2.44c-0.62,-0.05 -1.21,-0.1 -1.84,-0.16v1.5c-1.62,-0.07 -3.2,-0.15 -4.81,-0.22v-3.84h-2.94v-1.5h-1.84v-3.91h2.38v-6.19h1.84v-1.5h-1.81v-2.34h1.81v-1.5h-1.81v-6.22h-2.41v-1.94h1.84v-1.5h-1.84v-1.97h4.75v-3.81c2.39,-0.13 4.77,-0.27 7.16,-0.41v2.25c-0.57,0.03 -1.16,0.06 -1.75,0.09v1.59c1.39,-0.06 2.74,-0.12 4.13,-0.19v-3.97c2.21,-0.31 4.42,-0.63 6.63,-0.94zM41.38,7.94c-0.6,0.11 -1.22,0.23 -1.84,0.34v-1.78c0.61,-0.12 1.22,-0.25 1.84,-0.37zM39.03,8.34c-0.61,0.1 -1.21,0.21 -1.84,0.31v-1.72c0.6,-0.11 1.2,-0.23 1.84,-0.34zM17.72,6.91v1.5h-1.87v-1.5zM36.69,8.75c-0.61,0.09 -1.23,0.19 -1.87,0.28v-1.69c0.62,-0.1 1.24,-0.21 1.88,-0.31zM15.31,8.81v1.53h-1.87v-1.53zM17.72,8.81v1.53h-1.87v-1.53zM8.19,10.56v1.56c-0.62,-0.04 -1.24,-0.09 -1.87,-0.12v-1.56c0.63,0.04 1.24,0.09 1.88,0.13zM10.53,10.63v1.53h-1.84v-1.53zM12.94,10.72v1.53h-1.87v-1.53zM20.63,12.53v1.53c0.63,-0.03 1.25,-0.07 1.88,-0.09v-1.53c-0.62,0.03 -1.25,0.06 -1.87,0.09zM10.53,12.56v1.53h-1.84v-1.53zM39.56,12.81v1.78c0.62,-0.07 1.22,-0.14 1.81,-0.22v-1.81c-0.63,0.09 -1.23,0.16 -1.81,0.25zM18.25,14.09h1.84v-1.5h-1.84zM8.19,14.44v1.53c-0.59,0 -1.18,-0.02 -1.75,-0.03c-0.05,0 -0.16,-0.05 -0.16,-0.09c-0.01,-0.48 0,-0.95 0,-1.41zM12.94,14.59v1.5h-1.87v-1.5zM24.13,15.22c0,2.45 0,4.87 0,7.31c0.05,0 3.84,-0.14 4,-0.16c4.7,-0.36 5.64,-2.38 5.59,-4.62c-0.03,-1.22 0.06,-2.91 -3.84,-2.81c-0.6,0.02 -5.59,0.27 -5.75,0.28zM8.19,16.38v1.56h-1.87v-1.56zM12.94,16.5v1.53h-1.87v-1.53zM15.31,16.53v1.5h-1.87v-1.5zM17.25,18.03h1.84v-1.5h-1.84zM39.56,17.34v1.75c0.62,-0.04 1.19,-0.09 1.78,-0.12v-1.81c-0.61,0.06 -1.18,0.13 -1.78,0.19zM10.53,18.41v1.53h-1.84v-1.53zM15.31,18.47v1.5h-1.87v-1.5zM19.91,19.94h1.84v-1.47h-1.84zM8.19,20.31v1.53h-1.87v-1.53zM10.53,20.34v1.53h-1.84v-1.53zM12.94,20.38v1.5h-1.87v-1.5zM12.94,22.31v1.5h-1.87v-1.5zM15.31,22.31v1.5h-1.87v-1.5zM10.53,24.25v1.53h-1.84v-1.53zM15.31,24.25v1.5h-1.87v-1.5zM19.69,25.75h1.84v-1.5h-1.84zM12.94,26.19v1.5h-1.87v-1.5zM15.34,26.19v1.5h-1.91v-1.5zM24.13,34.84c0.14,0 5.39,0.22 6.31,0.22c3.77,0 4.07,-1.61 4.19,-2.03c0.16,-0.61 0.3,-1.24 0.13,-1.84c-0.6,-2.11 -0.75,-3.25 -6.62,-3.56c-0.55,-0.03 -3.88,-0.09 -4,-0.09zM10.56,28.13v1.53h-1.87v-1.53zM12.94,28.13v1.5h-1.87v-1.5zM8.19,28.16v1.53h-1.87v-1.53zM15.31,30.03v1.5h-1.87v-1.5zM17.78,31.53h1.84v-1.47h-1.84zM10.53,30.09v1.5h-1.84v-1.5zM8.19,30.13v1.53h-1.87v-1.53zM12.94,31.97v1.53h-1.87v-1.53zM15.31,31.97v1.5h-1.87v-1.5zM17.78,33.47h1.84v-1.5h-1.84zM10.53,32v1.53h-1.84v-1.53zM39.56,34.94c0.61,0.07 1.21,0.12 1.81,0.19v-1.81c-0.62,-0.06 -1.22,-0.1 -1.81,-0.16zM10.53,33.97v1.5h-1.84v-1.5zM12.94,35.84v1.5h-1.87v-1.5zM15.88,37.34h1.84v-1.5h-1.84zM10.53,35.91v1.53h-1.84v-1.53zM25.47,37.47c0.31,0.02 1.54,0.08 1.84,0.09v-1.56h-1.84zM30.22,37.75c0.16,0.01 1.39,0.12 1.84,0.16v-1.59c-0.15,-0.01 -0.32,-0.02 -0.47,-0.03c-0.46,-0.03 -0.91,-0.06 -1.37,-0.09zM12.94,37.78v1.5h-1.87v-1.5zM8.19,39.44c-0.63,0.04 -1.24,0.09 -1.87,0.13v-1.56c0.62,-0.04 1.23,-0.09 1.88,-0.12zM15.34,39.66v1.53h-1.91v-1.53zM17.72,39.66v1.53h-1.87v-1.53zM20.63,41.16h1.88v-1.47h-1.87zM10.53,41.28c-0.62,0.03 -1.21,0.07 -1.84,0.09v-1.56c0.62,-0.03 1.21,-0.07 1.84,-0.09zM12.94,39.72v1.5h-1.87v-1.5zM8.19,41.41c-0.62,0.04 -1.23,0.08 -1.87,0.13v-1.56c0.63,-0.04 1.24,-0.09 1.88,-0.12zM26.56,40.06c0.05,0 0.1,0.03 0.16,0.03c0.55,0.05 0.56,0.06 0.56,0.63c0,0.31 0,0.6 0,0.91c0,0.02 -0.02,0.04 -0.03,0.09c-0.61,-0.05 -1.26,-0.1 -1.91,-0.16v-1.56c0.41,0.03 0.82,0.04 1.22,0.06zM36.69,41.25v1.72c-0.63,-0.1 -1.25,-0.21 -1.87,-0.31v-1.69c0.63,0.09 1.25,0.19 1.88,0.28zM39.03,41.66v1.72c-0.37,-0.07 -0.73,-0.12 -1.09,-0.19c-0.25,-0.05 -0.6,-0.04 -0.72,-0.19c-0.03,-0.04 -0.05,-0.1 -0.06,-0.16c-0.03,-0.18 0,-0.4 0,-0.59c0,-0.14 0,-0.29 0,-0.44c0,-0.15 0,-0.3 0,-0.47c0.65,0.11 1.25,0.21 1.88,0.31zM17.72,41.59v1.5h-1.87v-1.5zM12.94,41.63v1.53h-1.87v-1.53zM41.38,42.06v1.81c-0.62,-0.12 -1.23,-0.25 -1.84,-0.37v-1.75c0.62,0.11 1.23,0.2 1.84,0.31zM27.25,42.13v1.59c-0.64,-0.06 -1.24,-0.13 -1.87,-0.19v-1.56c0.63,0.05 1.23,0.1 1.88,0.16zM36.69,43.41v1.69c-0.63,-0.11 -1.25,-0.23 -1.87,-0.34v-1.66c0.63,0.11 1.25,0.21 1.88,0.31zM17.72,43.5v1.72h-1.87v-1.72zM20.09,43.56v1.72h-1.87v-1.72zM22.5,43.72v1.75c-0.3,-0.02 -0.58,-0.05 -0.87,-0.06c-0.28,-0.02 -0.57,0 -0.84,-0.03c-0.07,-0.01 -0.19,-0.1 -0.19,-0.16c-0.02,-0.52 0,-1.04 0,-1.59c0.64,0.03 1.26,0.06 1.91,0.09zM24.28,43.84c0.59,0.05 0.59,0.06 0.59,0.66v1.16c-0.65,-0.05 -1.25,-0.11 -1.87,-0.16v-1.75c0.45,0.04 0.85,0.05 1.28,0.09zM29.63,44.41v1.81c-0.63,-0.08 -1.24,-0.17 -1.87,-0.25v-1.81c0.63,0.07 1.25,0.18 1.88,0.25zM32,44.72v1.88c-0.63,-0.1 -1.24,-0.21 -1.87,-0.31v-1.81c0.63,0.09 1.24,0.16 1.88,0.25zM36.69,45.53v1.94c-0.6,-0.12 -1.17,-0.25 -1.75,-0.37c-0.05,-0.01 -0.12,-0.07 -0.12,-0.12c-0.01,-0.57 0,-1.15 0,-1.78c0.65,0.12 1.25,0.23 1.88,0.34zM37.78,45.75c0.36,0.07 0.73,0.16 1.09,0.25c0.07,0.02 0.16,0.1 0.16,0.16c0.01,0.61 0.03,1.21 0.03,1.84c-0.61,-0.14 -1.2,-0.27 -1.78,-0.41c-0.05,-0.01 -0.12,-0.12 -0.12,-0.19c-0.01,-0.58 0,-1.13 0,-1.75c0.22,0.04 0.43,0.05 0.63,0.09z" />
	</g>
</svg>