<svg xmlns="http://www.w3.org/2000/svg" viewBox="0 0 506 506" width="506" height="506">
	<style>
		tspan { white-space:pre }
		.shp0 { fill: #ffffff } 
	</style>
	<g id="Layer">
		<g id="Layer">
			<g id="Layer">
				<path id="Layer" class="shp0" d="M68.54,164.72h-1.29c-16.59,0 -30.11,13.57 -30.11,30.11v131.11c0,16.61 13.52,30.13 30.11,30.13h1.32c16.59,0 30.11,-13.57 30.11,-30.13v-131.11c-0.02,-16.54 -13.57,-30.11 -30.14,-30.11z" />
				<path id="Layer" class="shp0" d="M113.09,376.54c0,15.23 12.45,27.63 27.67,27.63h29.57v70.82c0,16.63 13.57,30.16 30.11,30.16h1.29c16.61,0 30.16,-13.55 30.16,-30.16v-70.82h41.33v70.82c0,16.63 13.61,30.16 30.16,30.16h1.27c16.61,0 30.13,-13.55 30.13,-30.16v-70.82h29.6c15.21,0 27.65,-12.4 27.65,-27.63v-207.01h-278.95z" />
				<path id="Layer" class="shp0" d="M393.01,148.82c0,2.76 -0.15,5.48 -0.39,8.18h-280.05c-0.24,-2.7 -0.41,-5.41 -0.41,-8.18c0,-44.91 28.58,-84.06 70.97,-104.83l-23.51,-36.26c-1.51,-2.29 -0.84,-5.41 1.47,-6.9c2.31,-1.51 5.46,-0.88 6.95,1.47l24.31,37.51c18.31,-7.48 38.68,-11.69 60.25,-11.69c21.55,0 41.96,4.21 60.23,11.69l24.35,-37.51c1.49,-2.35 4.62,-2.98 6.9,-1.47c2.31,1.49 2.98,4.62 1.47,6.9l-23.49,36.26c42.37,20.77 70.97,59.92 70.97,104.83zM201.14,95.45c0,-7.46 -6,-13.44 -13.48,-13.44c-7.44,0 -13.48,5.98 -13.48,13.44c0,7.46 6.04,13.46 13.48,13.46c7.44,0 13.48,-6 13.48,-13.46zM330.95,95.45c0,-7.46 -6,-13.44 -13.46,-13.44c-7.44,0 -13.48,5.98 -13.48,13.44c0,7.46 6.04,13.46 13.48,13.46c7.46,0 13.46,-6 13.46,-13.46z" />
				<path id="Layer" class="shp0" d="M437.88,164.72h-1.25c-16.59,0 -30.16,13.57 -30.16,30.11v131.11c0,16.61 13.59,30.13 30.16,30.13h1.27c16.61,0 30.11,-13.57 30.11,-30.13v-131.11c0,-16.54 -13.55,-30.11 -30.14,-30.11z" />
			</g>
		</g>
		<g id="Layer">
		</g>
		<g id="Layer">
		</g>
		<g id="Layer">
		</g>
		<g id="Layer">
		</g>
		<g id="Layer">
		</g>
		<g id="Layer">
		</g>
		<g id="Layer">
		</g>
		<g id="Layer">
		</g>
		<g id="Layer">
		</g>
		<g id="Layer">
		</g>
		<g id="Layer">
		</g>
		<g id="Layer">
		</g>
		<g id="Layer">
		</g>
		<g id="Layer">
		</g>
		<g id="Layer">
		</g>
	</g>
	<g id="Layer">
	</g>
	<g id="Layer">
	</g>
	<g id="Layer">
	</g>
	<g id="Layer">
	</g>
	<g id="Layer">
	</g>
	<g id="Layer">
	</g>
	<g id="Layer">
	</g>
	<g id="Layer">
	</g>
	<g id="Layer">
	</g>
	<g id="Layer">
	</g>
	<g id="Layer">
	</g>
	<g id="Layer">
	</g>
	<g id="Layer">
	</g>
	<g id="Layer">
	</g>
	<g id="Layer">
	</g>
</svg>