<svg xmlns="http://www.w3.org/2000/svg" viewBox="0 0 24 24" width="24" height="24">
	<style>
		tspan { white-space:pre }
		.shp0 { fill: #ffffff } 
	</style>
	<path id="Layer" class="shp0" d="M14.31,0.18l0.9,0.2l0.73,0.26l0.59,0.3l0.45,0.32l0.34,0.34l0.25,0.34l0.16,0.33l0.1,0.3l0.04,0.26l0.02,0.2l-0.01,0.13v5.34l-0.05,0.63l-0.13,0.55l-0.21,0.46l-0.26,0.38l-0.3,0.31l-0.33,0.25l-0.35,0.19l-0.35,0.14l-0.33,0.1l-0.3,0.07l-0.26,0.04l-0.21,0.02h-5.97l-0.69,0.05l-0.59,0.14l-0.5,0.22l-0.41,0.27l-0.33,0.32l-0.27,0.35l-0.2,0.36l-0.15,0.37l-0.1,0.35l-0.07,0.32l-0.04,0.27l-0.02,0.21v3.06h-2.23l-0.21,-0.03l-0.28,-0.07l-0.32,-0.12l-0.35,-0.18l-0.36,-0.26l-0.36,-0.36l-0.35,-0.46l-0.32,-0.59l-0.28,-0.73l-0.21,-0.88l-0.14,-1.05l-0.05,-1.23l0.06,-1.22l0.16,-1.04l0.24,-0.87l0.32,-0.71l0.36,-0.57l0.4,-0.44l0.42,-0.33l0.42,-0.24l0.4,-0.16l0.36,-0.1l0.32,-0.05l0.24,-0.01h0.16l0.06,0.01h8.16v-0.83h-5.84l-0.01,-2.75l-0.02,-0.37l0.05,-0.34l0.11,-0.31l0.17,-0.28l0.25,-0.26l0.31,-0.23l0.38,-0.2l0.44,-0.18l0.51,-0.15l0.58,-0.12l0.64,-0.1l0.71,-0.06l0.77,-0.04l0.84,-0.02l1.27,0.05zM8.01,2.16l-0.23,0.33l-0.08,0.41l0.08,0.41l0.23,0.34l0.33,0.22l0.41,0.09l0.41,-0.09l0.33,-0.22l0.23,-0.34l0.08,-0.41l-0.08,-0.41l-0.23,-0.33l-0.33,-0.22l-0.41,-0.09l-0.41,0.09z" />
	<path id="Layer" class="shp0" d="M21.1,6.11l0.28,0.06l0.32,0.12l0.35,0.18l0.36,0.27l0.36,0.35l0.35,0.47l0.32,0.59l0.28,0.73l0.21,0.88l0.14,1.04l0.05,1.23l-0.06,1.23l-0.16,1.04l-0.24,0.86l-0.32,0.71l-0.36,0.57l-0.4,0.45l-0.42,0.33l-0.42,0.24l-0.4,0.16l-0.36,0.09l-0.32,0.05l-0.24,0.02l-0.16,-0.01h-8.22v0.82h5.84l0.01,2.76l0.02,0.36l-0.05,0.34l-0.11,0.31l-0.17,0.29l-0.25,0.25l-0.31,0.24l-0.38,0.2l-0.44,0.17l-0.51,0.15l-0.58,0.13l-0.64,0.09l-0.71,0.07l-0.77,0.04l-0.84,0.01l-1.27,-0.04l-1.07,-0.14l-0.9,-0.2l-0.73,-0.25l-0.59,-0.3l-0.45,-0.33l-0.34,-0.34l-0.25,-0.34l-0.16,-0.33l-0.1,-0.3l-0.04,-0.25l-0.02,-0.2l0.01,-0.13v-5.34l0.05,-0.64l0.13,-0.54l0.21,-0.46l0.26,-0.38l0.3,-0.32l0.33,-0.24l0.35,-0.2l0.35,-0.14l0.33,-0.1l0.3,-0.06l0.26,-0.04l0.21,-0.02l0.13,-0.01h5.84l0.69,-0.05l0.59,-0.14l0.5,-0.21l0.41,-0.28l0.33,-0.32l0.27,-0.35l0.2,-0.36l0.15,-0.36l0.1,-0.35l0.07,-0.32l0.04,-0.28l0.02,-0.21v-3.06h2.09l0.14,0.01zM14.63,20.36l-0.23,0.33l-0.08,0.41l0.08,0.41l0.23,0.33l0.33,0.23l0.41,0.08l0.41,-0.08l0.33,-0.23l0.23,-0.33l0.08,-0.41l-0.08,-0.41l-0.23,-0.33l-0.33,-0.23l-0.41,-0.08l-0.41,0.08z" />
</svg>