<svg xmlns="http://www.w3.org/2000/svg" viewBox="0 0 24 24" width="24" height="24">
	<style>
		tspan { white-space:pre }
		.shp0 { fill: #ffffff } 
	</style>
	<path id="Layer" class="shp0" d="M7.01,10.21h-0.94l-0.51,2.65h0.84c0.56,0 0.97,-0.11 1.24,-0.31c0.27,-0.21 0.46,-0.56 0.55,-1.05c0.09,-0.47 0.05,-0.8 -0.12,-0.99c-0.17,-0.19 -0.52,-0.29 -1.05,-0.29z" />
	<path id="Layer" class="shp0" d="M24,12c0,3.49 -5.37,6.31 -12,6.31c-6.63,0 -12,-2.83 -12,-6.31c0,-3.49 5.37,-6.31 12,-6.31c6.63,0 12,2.83 12,6.31zM9.3,12.44c0.15,-0.26 0.25,-0.55 0.3,-0.85c0.15,-0.75 0.04,-1.33 -0.33,-1.75c-0.37,-0.42 -0.95,-0.63 -1.74,-0.63h-2.65l-1.23,6.33h1.38l0.33,-1.68h1.18c0.52,0 0.95,-0.06 1.29,-0.16c0.34,-0.11 0.66,-0.3 0.92,-0.55c0.23,-0.21 0.42,-0.45 0.56,-0.7zM14.15,13.85l0.57,-2.94c0.12,-0.6 0.03,-1.03 -0.26,-1.3c-0.29,-0.27 -0.82,-0.4 -1.59,-0.4h-1.22l0.33,-1.68h-1.37l-1.23,6.33h1.37l0.7,-3.62h1.09c0.35,0 0.58,0.06 0.69,0.17c0.11,0.12 0.13,0.33 0.07,0.65l-0.54,2.8zM20.03,9.84c-0.37,-0.42 -0.95,-0.63 -1.74,-0.63h-2.65l-1.23,6.33h1.38l0.33,-1.68h1.18c0.52,0 0.95,-0.06 1.29,-0.16c0.34,-0.11 0.66,-0.3 0.92,-0.55c0.23,-0.21 0.42,-0.45 0.56,-0.7c0.15,-0.26 0.25,-0.55 0.3,-0.85c0.15,-0.75 0.03,-1.33 -0.33,-1.75z" />
	<path id="Layer" class="shp0" d="M17.77,10.21h-0.94l-0.52,2.65h0.84c0.56,0 0.97,-0.11 1.24,-0.31c0.27,-0.21 0.45,-0.56 0.55,-1.05c0.09,-0.47 0.05,-0.8 -0.12,-0.99c-0.17,-0.19 -0.52,-0.29 -1.05,-0.29z" />
</svg>