<svg xmlns="http://www.w3.org/2000/svg" viewBox="0 0 24 24" width="24" height="24">
	<style>
		tspan { white-space:pre }
		.shp0 { fill: #ffffff } 
	</style>
	<path id="Layer" class="shp0" d="M24,12c0,6.63 -5.37,12 -12,12c-6.63,0 -12,-5.37 -12,-12c0,-6.63 5.37,-12 12,-12c6.63,0 12,5.37 12,12zM17.25,4.44c-1.22,0.04 -2.28,0.71 -3.07,1.64c-0.88,1.02 -1.46,2.23 -1.88,3.46c-0.75,-0.61 -1.33,-1.41 -2.54,-1.76c-0.97,-0.3 -2.02,-0.11 -2.81,0.51c-0.41,0.32 -0.71,0.76 -0.86,1.25c-0.36,1.18 0.38,2.22 0.72,2.6l0.74,0.79c0.15,0.15 0.52,0.56 0.34,1.14c-0.19,0.63 -0.95,1.04 -1.73,0.8c-0.35,-0.11 -0.85,-0.37 -0.73,-0.73c0.04,-0.15 0.15,-0.26 0.21,-0.39c0.05,-0.11 0.08,-0.19 0.09,-0.24c0.14,-0.46 -0.05,-1.07 -0.55,-1.22c-0.46,-0.14 -0.94,-0.03 -1.12,0.57c-0.21,0.68 0.12,1.91 1.86,2.45c2.04,0.63 3.77,-0.48 4.01,-1.93c0.15,-0.91 -0.26,-1.58 -1.01,-2.45l-0.61,-0.68c-0.37,-0.37 -0.5,-1 -0.11,-1.48c0.32,-0.41 0.79,-0.58 1.54,-0.38c1.1,0.3 1.59,1.06 2.41,1.68c-0.34,1.11 -0.56,2.22 -0.76,3.22l-0.12,0.75c-0.58,3.07 -1.03,4.76 -2.19,5.73c-0.23,0.17 -0.57,0.42 -1.07,0.43c-0.27,0 -0.35,-0.18 -0.36,-0.26c-0.01,-0.18 0.15,-0.27 0.25,-0.35c0.15,-0.08 0.39,-0.22 0.37,-0.67c-0.02,-0.53 -0.46,-0.99 -1.09,-0.97c-0.48,0.02 -1.2,0.46 -1.18,1.29c0.03,0.85 0.82,1.48 2.01,1.44c0.64,-0.02 2.06,-0.28 3.46,-1.95c1.63,-1.91 2.09,-4.1 2.43,-5.71l0.38,-2.12c0.21,0.02 0.44,0.04 0.69,0.05c2.03,0.04 3.05,-1.01 3.06,-1.78c0.01,-0.46 -0.3,-0.92 -0.74,-0.91c-0.39,0.01 -0.72,0.28 -0.81,0.65c-0.09,0.43 0.65,0.81 0.07,1.19c-0.41,0.27 -1.15,0.45 -2.18,0.3l0.19,-1.04c0.39,-1.98 0.86,-4.41 2.66,-4.47c0.13,-0.01 0.61,0.01 0.62,0.32c0,0.11 -0.02,0.13 -0.15,0.38c-0.11,0.16 -0.17,0.34 -0.17,0.54c0.02,0.5 0.4,0.84 0.96,0.82c0.74,-0.02 0.95,-0.75 0.95,-1.12c-0.03,-0.87 -0.95,-1.42 -2.17,-1.39z" />
</svg>