<?xml version="1.0" encoding="iso-8859-1"?>
<!-- Generator: Adobe Illustrator 19.0.0, SVG Export Plug-In . SVG Version: 6.00 Build 0)  -->
<svg xmlns="http://www.w3.org/2000/svg" xmlns:xlink="http://www.w3.org/1999/xlink" version="1.1" id="Capa_1" x="0px" y="0px" viewBox="0 0 496 496" style="enable-background:new 0 0 496 496;" xml:space="preserve" width="512px" height="512px">
<g>
	<g>
		<g>
			<path d="M312,144H184c-22.056,0-40,17.944-40,40v216h16V208h176v192h16V184C352,161.944,334.056,144,312,144z M336,192H160v-8     c0-13.232,10.768-24,24-24h128c13.232,0,24,10.768,24,24V192z" fill="#FFFFFF"/>
			<path d="M144,456c0,22.056,17.944,40,40,40h128c22.056,0,40-17.944,40-40v-40H144V456z M160,432h176v24c0,13.232-10.768,24-24,24     H184c-13.232,0-24-10.768-24-24V432z" fill="#FFFFFF"/>
			<rect x="216" y="448" width="64" height="16" fill="#FFFFFF"/>
			<path d="M320,0H0v80h320V0z M304,64H16V16h288V64z" fill="#FFFFFF"/>
			<rect x="32" y="32" width="16" height="16" fill="#FFFFFF"/>
			<rect x="64" y="32" width="16" height="16" fill="#FFFFFF"/>
			<rect x="96" y="32" width="16" height="16" fill="#FFFFFF"/>
			<polygon points="16,96 0,96 0,368 128,368 128,352 16,352    " fill="#FFFFFF"/>
			<rect x="304" y="96" width="16" height="32" fill="#FFFFFF"/>
			<path d="M435.312,80H336v16h88v64h72v-19.312L435.312,80z M440,144v-36.688L476.688,144H440z" fill="#FFFFFF"/>
			<polygon points="480,400 368,400 368,416 496,416 496,176 480,176    " fill="#FFFFFF"/>
			<polygon points="192,128 192,96 32,96 32,112 176,112 176,128    " fill="#FFFFFF"/>
			<polygon points="48,128 32,128 32,208 128,208 128,192 48,192    " fill="#FFFFFF"/>
			<polygon points="32,336 128,336 128,320 48,320 48,240 128,240 128,224 32,224    " fill="#FFFFFF"/>
			<rect x="64" y="256" width="64" height="16" fill="#FFFFFF"/>
			<rect x="64" y="288" width="64" height="16" fill="#FFFFFF"/>
			<polygon points="368,384 464,384 464,176 368,176 368,192 448,192 448,368 368,368    " fill="#FFFFFF"/>
			<rect x="368" y="336" width="64" height="16" fill="#FFFFFF"/>
			<rect x="368" y="304" width="64" height="16" fill="#FFFFFF"/>
			<rect x="368" y="272" width="64" height="16" fill="#FFFFFF"/>
			<rect x="368" y="240" width="64" height="16" fill="#FFFFFF"/>
			<rect x="368" y="208" width="64" height="16" fill="#FFFFFF"/>
			<path d="M176,224v176h144V224H176z M304,384H192V240h112V384z" fill="#FFFFFF"/>
		</g>
	</g>
</g>
<g>
</g>
<g>
</g>
<g>
</g>
<g>
</g>
<g>
</g>
<g>
</g>
<g>
</g>
<g>
</g>
<g>
</g>
<g>
</g>
<g>
</g>
<g>
</g>
<g>
</g>
<g>
</g>
<g>
</g>
</svg>
