<svg xmlns="http://www.w3.org/2000/svg" viewBox="0 0 1083 839" width="1083" height="839">
	<style>
		tspan { white-space:pre }
		.shp0 { fill: #ffffff } 
	</style>
	<g id="g2830">
		<g id="#454d4cff">
			<path id="path5" class="shp0" d="M0,1.76c20.33,-2.55 40.87,-1.52 61.3,-1.67c74.77,-0.66 149.65,2.54 223.95,11.11c15.64,1.88 31.33,3.46 46.8,6.44c16.17,3.59 32.69,5.25 48.87,8.83c37.23,6.89 74.07,16.04 110.05,27.91c9.97,2.16 18.9,7.16 28.45,10.56c20.43,8.17 40.32,17.87 58.68,30.05c-4.17,29.2 -6.17,61.16 8.24,88.07c7.89,15.78 21.41,28.74 37.91,35.17c23.92,10.31 50.64,6.9 75.91,8.17c22.94,4.15 44.43,13.54 66.14,21.7c8.62,3.35 17.09,7.07 25.73,10.38c0.11,-2.83 0.24,-5.64 0.38,-8.46c9.71,11.39 22.68,19.74 36.5,25.28c-0.78,-4.81 -1.7,-9.59 -2.58,-14.38c6.72,6.31 13.02,13.06 19.86,19.25c6.26,5.13 13.22,9.35 20.24,13.37c-0.02,-6.63 -1.21,-13.14 -2.09,-19.68c10.48,11.9 21.89,22.95 32.16,35.06c8.17,0.13 16.34,0.23 24.54,0.37c7.04,12.12 15.04,23.64 22.89,35.25c1.87,3.19 3.15,5.31 4.52,8.97c1.93,4.3 -7.47,1.8 -5.23,4.56c14.19,17.72 35.48,28.04 57.12,33.44c-8.33,4.16 -18.1,5.51 -24.62,12.35c-12.17,13.44 11.54,-18.4 -4.95,8.05c-8.63,-7.8 -16.13,-16.78 -25.2,-24.1c-12.25,-9.98 -25.91,-18.16 -40.31,-24.62c-7.56,-3.51 -16.07,-7.26 -20.03,-15.05c-2.95,-7.62 -3.6,-15.88 -4.33,-23.93c-27.86,-13.62 -56.85,-24.74 -85.7,-36.02c-35.26,-12.91 -71.17,-26.12 -108.94,-28.82c-36.56,-3.56 -73.76,11.33 -99.28,37.4c-31.44,31.15 -44.82,79.63 -32.76,122.35c9.33,39.33 39.35,72.96 77.4,86.63c16.48,6.15 34.15,8.45 51.67,8.35c72.5,-0.04 145.58,8.68 214.65,31.36c37.63,12.62 74.02,30.04 105.29,54.72c13.55,11.36 27.35,22.64 38.21,36.75c18.37,23.28 33.03,50.19 38.84,79.47c-6.6,-12.64 -11.38,-26.2 -18.94,-38.33c-14.58,-25.11 -34.37,-46.92 -56.86,-65.14c-22.77,-16.4 -48.14,-28.92 -74.52,-38.36c-24.65,-8.61 -49.92,-16.14 -75.88,-19.48c34.05,17.49 63.83,42.6 88.24,71.98c16.72,18.31 29.97,39.43 42.06,60.99c10.24,17.96 18.44,36.99 25.69,56.33c2.37,6.54 4.98,13.18 4.98,20.27c-3.16,-5.31 -5.2,-11.16 -7.48,-16.87c-15.56,-37.86 -35.93,-74.08 -63.04,-104.91c-19.95,-25.64 -46.37,-45.5 -74.32,-61.66c-53.23,-30.44 -116.37,-40.15 -176.96,-35.28c-50.28,5.8 -101.86,-16.08 -135,-53.83c-16.52,-18.5 -28.68,-40.78 -35.49,-64.61c-6.27,-26.63 -7.8,-54.86 -0.55,-81.47c5.94,-26.01 19.85,-49.7 37.69,-69.34c12.53,-13.28 26.84,-25.21 43.41,-33.11c-15.57,-26.34 -26.55,-55.13 -35.2,-84.41c-4.6,-15.64 -6.6,-31.89 -10.38,-47.72c-0.53,-2.59 -3.49,-3.19 -5.37,-4.45c-14.55,-7.29 -29.19,-14.45 -44.17,-20.82c-10.02,-4.56 -20.93,-6.53 -31.02,-10.92c-16.5,-4.87 -32.78,-10.48 -49.47,-14.71c-9.99,-2.57 -19.36,-7.03 -29.41,-9.4c-20.76,-5.28 -41.35,-11.67 -62.64,-14.45c-110.23,-23.71 -223.09,-32.91 -335.65,-34.94z" />
			<path id="path7" class="shp0" d="M144.29,144.01c134.72,-21.78 271.49,-28.02 407.81,-26.87c1.55,8.41 3.49,16.75 5.38,25.09c-56.53,-5.67 -113.4,-7.48 -170.19,-7.1c-116.58,2.58 -232.88,13.53 -348.32,29.76c34.52,-9.56 70.03,-14.97 105.32,-20.88z" />
			<path id="path9" class="shp0" d="M336.01,203.69c73.01,-24.17 148.27,-42.41 224.96,-49.62c1.7,8.11 4.08,16.05 6.56,23.96c-129.32,6.62 -255.85,40.98 -375.23,90.08c-18.36,7.27 -36.04,16.11 -54.18,23.89c16.08,-10.12 33.22,-18.4 50.17,-26.92c47.73,-23.88 97.25,-44.08 147.72,-61.39z" />
			<path id="path11" class="shp0" d="M713.04,179.25c31.81,7.71 62.12,20.88 91.11,35.93c34.4,17.99 66.23,40.91 93.95,68.11c5.48,5.74 12.52,10.32 16.38,17.44c-3.43,-0.53 -7.84,1.7 -10.51,-1.22c-10.15,-12.76 -21.89,-24.24 -34.44,-34.65c-34.7,-28.54 -74.12,-50.9 -115.2,-68.86c-13.45,-6.34 -27.75,-10.66 -41.29,-16.75z" />
		</g>
		<g id="#ffcb17ff">
			<path id="path14" class="shp0" d="M923.01,334.89c18.51,19.29 -0.55,-0.71 16.93,17.62c0.49,0.51 0.33,0.17 -0.34,1.81c-5.62,-2.24 -11.06,-4.9 -16.54,-7.4c-0.04,-4.02 -0.06,-8.03 -0.05,-12.03z" />
		</g>
		<g id="#454d4cff-6">
			<path id="path2918" class="shp0" d="M726.55,515.47c32.69,2.16 65.81,4.74 97.99,11.04c18.28,3.7 36.44,8.01 54.6,12.24c23.98,8.1 47.79,16.87 70.9,27.22c47.69,22.75 90.15,58.9 114.84,106.15c8.03,16.5 15.4,33.81 17.14,52.28c-4.99,-10.62 -8.69,-21.82 -14.19,-32.21c-7.92,-15.18 -16.74,-30.04 -27.82,-43.14c-33.23,-40.86 -82.01,-65.5 -131.63,-80.44c-16.78,-4.59 -33.43,-9.94 -50.71,-12.36c16.19,8.57 31.67,18.57 45.65,30.45c5.76,4.89 11.18,10.19 16.95,15.07c6.69,5.65 11.85,12.81 17.82,19.18c15.81,17.33 28.92,36.9 41.07,56.91c16.31,26.78 28.15,55.99 38.5,85.5c8.43,24.16 12.83,49.44 16.33,74.71h-1.03c-7.76,-35.85 -17.93,-71.4 -33.16,-104.85c-16.56,-38.14 -39.63,-73.52 -68.33,-103.64c-26.43,-26.61 -57.89,-48.34 -92.74,-62.37c-34.91,-15.99 -74.12,-21.13 -112.04,-23.16z" />
		</g>
	</g>
</svg>