<svg xmlns="http://www.w3.org/2000/svg" viewBox="0 0 24 24" width="24" height="24">
	<style>
		tspan { white-space:pre }
		.shp0 { fill: #ffffff } 
	</style>
	<path id="Layer" class="shp0" d="M8.49,24c-1.54,-0.68 -2.59,-2.15 -2.72,-3.82c0.09,-1.73 1,-3.3 2.45,-4.25c-0.24,0.58 -0.18,1.24 0.15,1.77c0.38,0.52 1.02,0.78 1.65,0.65c0.9,-0.25 1.43,-1.19 1.18,-2.09c-0.09,-0.32 -0.27,-0.6 -0.52,-0.82c-1.02,-0.83 -1.53,-2.13 -1.35,-3.44c0.18,-0.69 0.56,-1.31 1.1,-1.78c-0.4,1.08 0.74,2.15 1.5,2.67c1.36,0.82 2.67,1.71 3.92,2.69c1.37,1.08 2.12,2.77 2,4.5c-0.31,1.84 -1.61,3.36 -3.38,3.93c3.55,-0.79 7.21,-3.61 7.28,-7.61c-0.07,-3.2 -1.98,-6.07 -4.9,-7.38h-0.13c0.07,0.16 0.1,0.33 0.09,0.5c0.01,-0.11 0.01,-0.22 0,-0.33c0.02,0.13 0.02,0.26 0,0.39c-0.22,0.91 -1.14,1.47 -2.05,1.25c-0.36,-0.09 -0.69,-0.29 -0.92,-0.59c-1.17,-1.5 0,-3.21 0.2,-4.86c0.12,-2.11 -0.84,-4.13 -2.55,-5.36c0.86,1.43 -0.28,3.3 -1.11,4.37c-0.83,1.07 -2.03,1.86 -3.01,2.79c-1.05,0.98 -2.02,2.06 -2.89,3.21c-1.87,2.29 -2.61,5.31 -2,8.21c0.84,2.79 3.15,4.89 6.02,5.43h0.02z" />
</svg>